<?xml version="1.0" standalone="no"?>
<!DOCTYPE svg PUBLIC "-//W3C//DTD SVG 20010904//EN"
 "http://www.w3.org/TR/2001/REC-SVG-20010904/DTD/svg10.dtd">
<svg version="1.0" xmlns="http://www.w3.org/2000/svg"
 width="225.000000pt" height="225.000000pt" viewBox="0 0 225.000000 225.000000"
 preserveAspectRatio="xMidYMid meet">

<g transform="translate(0.000000,225.000000) scale(0.100000,-0.100000)"
fill="#000000" stroke="none">
<path d="M0 1125 l0 -1125 1125 0 1125 0 0 1125 0 1125 -1125 0 -1125 0 0
-1125z m1324 530 l196 -94 0 -95 0 -95 -92 25 c-51 14 -101 27 -110 30 -16 5
-18 -4 -18 -89 l0 -95 88 -7 c48 -3 93 -8 100 -10 8 -3 12 -32 12 -98 l0 -94
-37 -6 c-21 -3 -66 -9 -100 -13 l-63 -7 -2 -210 -3 -210 -92 -49 -93 -50 0
631 c0 354 4 631 9 631 5 0 97 -43 205 -95z m-494 -99 l75 -22 3 -396 c2 -371
1 -397 -15 -402 -10 -3 -51 -14 -90 -25 l-73 -20 0 445 c0 349 3 444 13 443 6
0 46 -10 87 -23z"/>
</g>
</svg>
