<?xml version="1.0" standalone="no"?>
<!DOCTYPE svg PUBLIC "-//W3C//DTD SVG 20010904//EN"
 "http://www.w3.org/TR/2001/REC-SVG-20010904/DTD/svg10.dtd">
<svg version="1.0" xmlns="http://www.w3.org/2000/svg"
 width="345.000000pt" height="146.000000pt" viewBox="0 0 345.000000 146.000000"
 preserveAspectRatio="xMidYMid meet">

<g transform="translate(0.000000,146.000000) scale(0.100000,-0.100000)"
fill="#000000" stroke="none">
<path d="M585 1451 c-43 -11 -72 -31 -84 -58 -7 -15 -11 -103 -11 -223 l0
-200 -195 0 c-291 0 -290 1 -290 -244 0 -243 -1 -241 287 -238 l196 3 4 -198
c5 -286 5 -286 233 -291 129 -3 155 -1 185 15 62 32 70 62 70 281 l0 192 200
0 c277 0 274 -2 285 201 9 155 1 205 -41 247 l-32 32 -206 0 -206 0 -1 188 c0
289 -5 296 -222 299 -78 1 -155 -2 -172 -6z m311 -42 c39 -20 44 -51 44 -264
l0 -205 23 0 c256 -2 415 -7 429 -14 33 -16 43 -65 40 -205 -3 -137 -14 -182
-47 -195 -9 -3 -113 -6 -231 -6 l-215 0 3 -215 c3 -206 2 -215 -18 -235 -12
-12 -39 -26 -60 -31 -47 -11 -284 -1 -301 13 -7 6 -13 7 -14 2 0 -5 -7 9 -15
31 -11 29 -15 81 -14 190 2 256 3 242 -22 249 -13 3 -87 1 -164 -5 -157 -12
-235 -3 -273 32 -20 19 -21 29 -21 177 1 174 4 186 61 202 19 6 121 10 226 10
l193 0 0 199 c0 112 5 211 10 228 10 27 33 46 67 55 30 8 280 -3 299 -13z"/>
<path d="M2040 952 c-53 -26 -62 -67 -58 -242 4 -159 10 -179 64 -205 27 -13
125 -15 679 -15 l647 0 33 33 32 32 7 140 c7 163 -1 209 -44 248 l-30 27 -648
0 c-596 0 -650 -1 -682 -18z m128 -21 c11 -6 10 -10 -4 -15 -9 -3 -19 -4 -22
-1 -3 3 1 5 9 5 11 0 11 2 -1 10 -8 5 -10 10 -5 10 6 0 16 -4 23 -9z m752 -1
c-45 -7 -45 -7 -10 -10 l35 -3 -32 -4 c-30 -4 -57 -30 -51 -50 1 -4 -3 -18
-10 -30 -7 -13 -10 -23 -6 -23 3 0 1 -7 -6 -15 -7 -8 -16 -12 -21 -9 -5 3 -9
0 -9 -6 0 -6 -5 -8 -11 -5 -5 4 -18 -3 -28 -14 -10 -12 -28 -21 -40 -21 -24 0
-82 -27 -92 -42 -6 -9 -151 -5 -224 6 -16 2 -36 5 -42 5 -7 1 -12 4 -11 9 4
21 -17 42 -42 42 -21 0 -30 7 -40 30 -9 22 -19 30 -38 30 -32 0 -23 10 20 20
l33 8 -30 2 c-16 1 23 8 87 15 65 7 130 16 145 20 26 7 26 8 8 15 -11 5 -45 9
-75 9 -30 1 -93 4 -140 9 l-85 7 80 5 c130 8 684 8 635 0z"/>
</g>
</svg>
